<svg version="1.1" id="battery" xmlns="http://www.w3.org/2000/svg" xmlns:xlink="http://www.w3.org/1999/xlink" x="0px" y="0px"
	 width="11px" height="6px" viewBox="0 0 11 6" xml:space="preserve">
	<path class="border" opacity="0.4" fill="#FFFFFF" d="M8.738,0.448H1.214c-0.605,0-1.096,0.489-1.096,1.091v2.923
		c0,0.601,0.491,1.091,1.096,1.091h7.524c0.604,0,1.096-0.489,1.096-1.091V1.539C9.834,0.937,9.342,0.448,8.738,0.448z M9.396,4.461
		c0,0.361-0.295,0.655-0.658,0.655H1.214c-0.363,0-0.658-0.294-0.658-0.655V1.539c0-0.361,0.295-0.655,0.658-0.655h7.524
		c0.363,0,0.658,0.294,0.658,0.655V4.461z"/>
	<path class="bar" fill="#FFFFFF" d="M8.959,4.461c0,0.121-0.099,0.22-0.221,0.22H1.214c-0.122,0-0.221-0.098-0.221-0.22V1.539
		c0-0.121,0.099-0.22,0.221-0.22h7.524c0.122,0,0.221,0.098,0.221,0.22V4.461z"/>
	<path class="cap" fill="#FFFFFF" d="M10.882,3c0,0.325-0.264,0.588-0.59,0.588c0-0.397,0-0.84,0-1.176
		C10.618,2.412,10.882,2.675,10.882,3z"/>
</svg>
