<svg version="1.1" id="camera" xmlns="http://www.w3.org/2000/svg" xmlns:xlink="http://www.w3.org/1999/xlink" x="0px" y="0px"
	 width="23px" height="23px" viewBox="0 0 23 23" enable-background="new 0 0 23 23" xml:space="preserve">
<circle id="bg" opacity="0.5" cx="11.5" cy="11.5" r="11.5"/>
<path id="icon" fill="#FFFFFF" d="M11.5,10.463c-0.859,0-1.556,0.697-1.556,1.556c0,0.859,0.696,1.556,1.556,1.556
	c0.859,0,1.556-0.696,1.556-1.556C13.056,11.16,12.359,10.463,11.5,10.463L11.5,10.463z M15.648,8.907h-1.245
	c-0.171,0-0.356-0.133-0.409-0.295l-0.322-0.965c-0.054-0.163-0.238-0.295-0.409-0.295H9.737c-0.171,0-0.355,0.133-0.409,0.295
	L9.005,8.612C8.951,8.775,8.768,8.907,8.596,8.907H7.352c-0.57,0-1.037,0.467-1.037,1.037v4.667c0,0.57,0.467,1.037,1.037,1.037
	h8.297c0.57,0,1.037-0.467,1.037-1.037V9.944C16.686,9.374,16.219,8.907,15.648,8.907L15.648,8.907z M11.5,14.611
	c-1.432,0-2.593-1.161-2.593-2.593c0-1.432,1.161-2.593,2.593-2.593c1.432,0,2.593,1.161,2.593,2.593
	C14.093,13.451,12.932,14.611,11.5,14.611L11.5,14.611z M15.285,10.67c-0.2,0-0.363-0.162-0.363-0.363
	c0-0.2,0.163-0.363,0.363-0.363c0.201,0,0.363,0.162,0.363,0.363C15.648,10.507,15.486,10.67,15.285,10.67L15.285,10.67z
	 M15.285,10.67"/>
</svg>
