<svg version="1.1" id="flashlight" xmlns="http://www.w3.org/2000/svg" xmlns:xlink="http://www.w3.org/1999/xlink" x="0px" y="0px"
	 width="23px" height="23px" viewBox="0 0 23 23" enable-background="new 0 0 23 23" xml:space="preserve">
<circle id="bg" opacity="0.5" fill="#010101" cx="11.5" cy="11.5" r="11.5"/>
<g id="flashlight_1_">
	<path id="head" fill="#FFFFFF" d="M14.51,5.919c0.001-0.047,0.002-0.095,0.002-0.142V5.494c0-0.213-0.173-0.386-0.386-0.386H8.874
		c-0.213,0-0.386,0.173-0.386,0.386v0.283c0,0.047,0.001,0.095,0.002,0.142H14.51z"/>
	<path id="torch" fill="#FFFFFF" d="M8.498,6.112c0.079,1.385,0.644,2.239,1.603,3.253l0.055,0.058v7.652
		c0,0.452,0.366,0.818,0.818,0.818h1.051c0.452,0,0.818-0.366,0.818-0.818V9.423l0.055-0.058c0.959-1.014,1.525-1.868,1.603-3.253
		H8.498z M12.2,12.922c0,0.387-0.313,0.7-0.7,0.7s-0.7-0.314-0.7-0.7v-1.699c0-0.387,0.314-0.7,0.7-0.7s0.7,0.314,0.7,0.7V12.922z"
		/>
	<circle id="switch" fill="#FFFFFF" cx="11.5" cy="12.918" r="0.498"/>
</g>
</svg>
