
<svg version="1.1" id="lock" xmlns="http://www.w3.org/2000/svg" xmlns:xlink="http://www.w3.org/1999/xlink" x="0px" y="0px"
	 width="11px" height="16.592px" viewBox="0 0 11 16.592" xml:space="preserve">
	<path class="lock" fill="rgba(255,255,255,.85" d="M10.089,7.184V4.579c0-2.531-2.058-4.589-4.589-4.589c-2.531,0-4.589,2.058-4.589,4.589v2.606
		C0.373,7.457,0,8.01,0,8.655v6.283c0,0.914,0.741,1.655,1.655,1.655h7.691c0.914,0,1.655-0.741,1.655-1.655V8.655
		C11,8.01,10.627,7.457,10.089,7.184z M5.5,1.205c1.86,0,3.374,1.514,3.374,3.374V7H2.126V4.579C2.126,2.719,3.64,1.205,5.5,1.205z"
		/>
</svg>
