<?xml version="1.0" encoding="utf-8"?>
<!-- Generator: Adobe Illustrator 17.0.0, SVG Export Plug-In . SVG Version: 6.00 Build 0)  -->
<!DOCTYPE svg PUBLIC "-//W3C//DTD SVG 1.1//EN" "http://www.w3.org/Graphics/SVG/1.1/DTD/svg11.dtd">
<svg version="1.1" id="Capa_1" xmlns="http://www.w3.org/2000/svg" xmlns:xlink="http://www.w3.org/1999/xlink" x="0px" y="0px"
	 width="23px" height="23px" viewBox="0 0 23 23" enable-background="new 0 0 23 23" xml:space="preserve">
<path fill="#74DB6B" d="M18.283,23H4.717C2.116,23,0,20.884,0,18.283V4.717C0,2.116,2.116,0,4.717,0h13.566
	C20.884,0,23,2.116,23,4.717v13.566C23,20.884,20.884,23,18.283,23z"/>
<path fill="#FFFFFF" d="M11.5,4.762c-4.218,0-7.637,2.816-7.637,6.289c0,2.007,1.141,3.794,2.919,4.946l-0.403,2.422l2.725-1.394
	c0.754,0.205,1.559,0.316,2.396,0.316c4.218,0,7.637-2.816,7.637-6.289S15.718,4.762,11.5,4.762z"/>
</svg>
