<svg version="1.1" id="network" xmlns="http://www.w3.org/2000/svg" xmlns:xlink="http://www.w3.org/1999/xlink" x="0px" y="0px"
	 width="9px" height="6px" viewBox="0 0 9 6" xml:space="preserve">
	<path class="long" fill="#FFFFFF" d="M8.821,5.656c0,0.147-0.119,0.265-0.266,0.265h-0.8c-0.148,0-0.267-0.119-0.267-0.265V0.311
		c0-0.147,0.119-0.265,0.267-0.265h0.8c0.147,0,0.266,0.118,0.266,0.265V5.656z"/>
	<path class="medium" fill="#FFFFFF" d="M6.385,5.656c0,0.147-0.119,0.265-0.267,0.265h-0.8c-0.148,0-0.266-0.119-0.266-0.265V1.745
		c0-0.147,0.119-0.266,0.266-0.266h0.8c0.148,0,0.267,0.119,0.267,0.266V5.656z"/>
	<path class="small" fill="#FFFFFF" d="M3.949,5.656c0,0.147-0.119,0.265-0.267,0.265h-0.8c-0.147,0-0.266-0.119-0.266-0.265V2.94
		c0-0.147,0.119-0.266,0.266-0.266h0.8c0.148,0,0.267,0.119,0.267,0.266V5.656z"/>
	<path class="smaller" fill="#FFFFFF" d="M1.512,5.656c0,0.147-0.119,0.265-0.267,0.265h-0.8c-0.147,0-0.266-0.119-0.266-0.265V3.895
		c0-0.147,0.119-0.265,0.266-0.265h0.8c0.148,0,0.267,0.119,0.267,0.265V5.656z"/>
</svg>
