
<svg version="1.1" id="wifi" xmlns="http://www.w3.org/2000/svg" xmlns:xlink="http://www.w3.org/1999/xlink" x="0px" y="0px"
	 width="8.391px" height="6px" viewBox="0 0 8.391 6" xml:space="preserve">
	<path class="long" fill-rule="evenodd" clip-rule="evenodd" fill="#FFFFFF" d="M1.167,2.816C0.811,2.47,0.466,2.135,0.122,1.801
		c2.142-2.174,5.895-2.256,8.147,0.003C7.929,2.144,7.59,2.485,7.24,2.836C6.386,2.039,5.377,1.611,4.202,1.608
		C3.024,1.606,2.011,2.027,1.167,2.816z"/>
	<path class="medium" fill-rule="evenodd" clip-rule="evenodd" fill="#FFFFFF" d="M2.659,4.327C2.312,3.988,1.969,3.653,1.624,3.318
		c1.337-1.371,3.744-1.41,5.121-0.014C6.408,3.647,6.071,3.989,5.732,4.333C4.704,3.536,3.681,3.534,2.659,4.327z"/>
	<path class="small" fill-rule="evenodd" clip-rule="evenodd" fill="#FFFFFF" d="M5.199,4.844C4.858,5.188,4.523,5.527,4.192,5.86
		c-0.34-0.337-0.677-0.672-1.013-1.006C3.618,4.372,4.62,4.287,5.199,4.844z"/>
</svg>
